<?xml version="1.0" standalone="no"?>
<!DOCTYPE svg PUBLIC "-//W3C//DTD SVG 20010904//EN"
 "http://www.w3.org/TR/2001/REC-SVG-20010904/DTD/svg10.dtd">
<svg version="1.0" xmlns="http://www.w3.org/2000/svg"
 width="225.000000pt" height="224.000000pt" viewBox="0 0 225.000000 224.000000"
 preserveAspectRatio="xMidYMid meet">

<g transform="translate(0.000000,224.000000) scale(0.100000,-0.100000)"
fill="#000000" stroke="none">
<path d="M1088 2233 c23 -2 59 -2 80 0 20 2 1 4 -43 4 -44 0 -61 -2 -37 -4z"/>
<path d="M963 2223 c9 -2 25 -2 35 0 9 3 1 5 -18 5 -19 0 -27 -2 -17 -5z"/>
<path d="M1253 2223 c9 -2 25 -2 35 0 9 3 1 5 -18 5 -19 0 -27 -2 -17 -5z"/>
<path d="M908 2213 c6 -2 18 -2 25 0 6 3 1 5 -13 5 -14 0 -19 -2 -12 -5z"/>
<path d="M1318 2213 c6 -2 18 -2 25 0 6 3 1 5 -13 5 -14 0 -19 -2 -12 -5z"/>
<path d="M858 2203 c6 -2 18 -2 25 0 6 3 1 5 -13 5 -14 0 -19 -2 -12 -5z"/>
<path d="M1368 2203 c6 -2 18 -2 25 0 6 3 1 5 -13 5 -14 0 -19 -2 -12 -5z"/>
<path d="M800 2193 c-8 -3 -39 -15 -68 -25 -29 -11 -52 -21 -50 -23 2 -2 39 9
83 25 44 16 73 29 65 29 -8 0 -22 -3 -30 -6z"/>
<path d="M1498 2165 c314 -114 557 -353 672 -661 16 -44 29 -73 30 -67 0 22
-50 146 -87 213 -104 191 -296 377 -488 473 -57 28 -190 77 -208 77 -7 -1 30
-16 81 -35z"/>
<path d="M984 2152 c-6 -4 -17 -18 -23 -30 -11 -21 -10 -27 10 -48 12 -13 29
-24 37 -24 7 0 0 12 -17 26 l-31 26 21 29 c21 30 22 34 3 21z"/>
<path d="M1063 2140 c-1 -11 -8 -34 -17 -50 -12 -26 -12 -30 0 -30 8 0 13 6
12 13 -2 7 9 13 26 15 23 3 28 0 23 -12 -4 -11 -1 -16 12 -16 17 0 17 4 -8 50
-27 52 -46 64 -48 30z m23 -37 c-11 -11 -19 6 -11 24 8 17 8 17 12 0 3 -10 2
-21 -1 -24z"/>
<path d="M1220 2141 c5 -11 10 -33 10 -50 0 -46 17 -46 39 1 l19 43 1 -35 c2
-62 16 -68 41 -19 13 24 28 47 34 51 6 5 2 8 -11 8 -13 0 -22 -3 -21 -7 3 -15
-14 -63 -23 -63 -5 0 -9 18 -9 40 0 22 -4 40 -8 40 -4 0 -18 -19 -30 -42 l-22
-43 3 48 c2 39 -1 47 -16 47 -14 0 -16 -4 -7 -19z"/>
<path d="M923 2143 c-10 -3 -10 -10 -2 -25 6 -11 9 -33 7 -49 -4 -24 -1 -29
15 -29 15 0 17 3 9 13 -6 7 -13 32 -14 55 -2 23 -3 42 -3 41 0 0 -6 -3 -12 -6z"/>
<path d="M579 2097 c-41 -24 -102 -64 -135 -89 -102 -79 -243 -236 -284 -318
-17 -35 -1 -16 45 54 89 133 246 274 395 355 41 22 70 41 65 41 -6 0 -44 -19
-86 -43z"/>
<path d="M865 2086 c8 -24 11 -47 8 -50 -4 -3 1 -6 9 -6 14 0 14 5 2 41 -8 22
-12 45 -9 50 4 5 0 9 -8 9 -13 0 -13 -6 -2 -44z"/>
<path d="M790 2110 c-8 -6 -10 -10 -4 -10 6 0 15 -16 21 -35 l11 -35 -43 31
c-43 31 -81 33 -50 3 8 -8 17 -30 21 -49 4 -24 10 -32 21 -28 8 3 11 9 6 12
-10 7 -35 62 -30 67 2 2 20 -10 40 -27 21 -17 41 -29 45 -27 5 2 1 26 -8 55
-12 41 -19 50 -30 43z"/>
<path d="M1420 2111 c0 -5 -15 -25 -33 -45 -28 -30 -31 -35 -15 -39 10 -3 16
0 15 7 -1 6 9 11 23 11 18 0 25 -5 25 -19 0 -11 5 -21 11 -23 8 -3 9 11 3 44
-4 26 -8 54 -8 61 -1 14 -21 17 -21 3z m9 -50 c-15 -5 -22 6 -14 19 6 9 10 9
16 -1 5 -8 4 -15 -2 -18z"/>
<path d="M1515 2081 c8 -13 -24 -81 -38 -81 -8 0 -7 -4 3 -10 21 -14 28 -12
26 6 -2 30 21 25 27 -6 4 -16 11 -30 17 -30 6 0 6 7 -2 20 -11 16 -9 22 9 40
27 25 21 45 -18 59 -16 6 -27 6 -24 2z m43 -34 c2 -12 -3 -17 -17 -17 -23 0
-24 1 -15 25 8 19 28 15 32 -8z"/>
<path d="M652 2053 c-10 -4 -9 -9 5 -19 17 -13 17 -15 -7 -33 -27 -22 -40 -19
-40 9 0 13 -5 17 -14 14 -12 -4 -10 -13 10 -41 13 -20 24 -42 24 -49 0 -8 6
-11 15 -8 13 5 13 8 0 21 -21 20 -19 28 9 41 19 8 27 8 35 -2 6 -7 8 -16 4
-19 -3 -4 -1 -7 5 -7 6 0 14 5 17 10 3 6 2 10 -3 10 -10 0 -38 60 -34 73 2 8
-6 8 -26 0z"/>
<path d="M1613 2014 c-3 -9 -1 -25 5 -35 7 -10 12 -23 12 -29 0 -17 -28 -11
-39 8 -10 16 -10 16 -11 0 0 -19 28 -38 48 -31 15 6 16 45 0 61 -8 8 -9 15 -1
23 7 7 15 5 27 -6 9 -9 16 -13 16 -8 0 13 -22 33 -37 33 -8 0 -16 -7 -20 -16z"/>
<path d="M522 1974 c-40 -28 -16 -94 34 -94 21 0 44 18 44 34 0 5 -6 2 -13 -9
-18 -23 -63 -14 -72 16 -8 24 12 52 32 45 7 -3 13 -1 13 4 0 17 -17 19 -38 4z"/>
<path d="M1120 1982 l34 -7 -26 -12 c-22 -10 -29 -9 -38 3 -17 20 -96 19 -104
-1 -4 -13 -2 -13 14 -5 26 14 77 13 86 -2 4 -6 2 -14 -4 -16 -7 -2 -10 -7 -7
-12 3 -4 -12 -7 -32 -5 -32 2 -33 2 -8 -4 l29 -6 -27 -12 c-16 -7 -36 -13 -45
-13 -15 0 -15 -2 -2 -10 13 -8 12 -10 -3 -10 -10 0 -15 -4 -12 -10 4 -6 -7 -8
-27 -5 -26 4 -28 3 -8 -3 l24 -8 -24 -17 c-28 -20 -26 -22 20 -30 l35 -6 -30
14 -29 13 34 21 c41 25 41 25 77 9 l27 -13 -34 -6 c-31 -6 -31 -6 8 -4 48 3
64 -11 36 -32 -12 -9 -31 -12 -54 -8 -26 4 -31 3 -20 -4 22 -15 217 -14 222 1
3 7 11 9 24 4 19 -8 19 -8 -1 -16 -11 -5 -15 -9 -8 -9 6 -1 16 -13 22 -28 l11
-28 -5 28 c-6 32 -9 31 45 12 48 -17 62 -19 42 -6 -11 7 -11 9 1 14 9 3 21 -1
27 -9 10 -11 10 -14 -1 -14 -8 0 10 -14 40 -30 116 -64 196 -141 265 -253 21
-35 39 -53 54 -54 16 -2 22 3 22 17 0 26 12 25 38 -3 23 -24 27 -43 15 -73 -6
-16 -7 -16 -15 2 -4 11 -5 4 -2 -18 5 -30 3 -38 -10 -38 -20 0 -36 31 -36 72
0 25 -3 29 -10 18 -8 -12 -10 -12 -10 -1 0 8 -2 12 -4 10 -6 -6 31 -115 38
-111 17 7 24 0 18 -20 -4 -18 -6 -19 -11 -5 -3 9 -5 -49 -5 -128 1 -80 -2
-145 -5 -145 -4 0 -12 -19 -19 -42 -7 -24 -15 -50 -19 -58 -3 -8 2 -6 11 5 13
17 15 17 16 4 0 -9 -7 -22 -15 -29 -8 -7 -15 -9 -15 -4 0 4 -15 -18 -34 -49
-70 -115 -149 -191 -267 -257 -30 -17 -45 -29 -34 -27 11 2 30 8 42 15 12 7
29 12 39 12 10 0 14 3 11 7 -8 7 11 33 25 33 6 0 8 -7 4 -15 -3 -8 -1 -15 4
-15 6 0 10 8 10 18 0 35 33 53 145 78 17 3 24 9 17 11 -9 3 -7 13 9 36 17 27
15 26 -11 -5 -34 -41 -60 -49 -60 -20 0 23 22 43 77 71 39 19 42 19 47 3 3
-10 4 -7 3 8 0 14 7 40 16 58 25 46 13 40 -14 -8 -29 -51 -49 -59 -49 -20 0
21 11 38 42 64 23 20 45 36 50 36 4 0 8 -17 8 -39 0 -28 -6 -43 -22 -55 -23
-16 -23 -16 -1 -6 30 14 31 13 36 -17 4 -27 4 -27 6 4 1 23 9 36 34 52 l32 20
6 -27 c7 -27 7 -27 7 -2 1 14 -5 39 -13 55 l-13 30 -1 -27 c-1 -16 -10 -33
-23 -42 -33 -24 -40 -19 -23 14 19 37 19 54 0 20 l-14 -25 -1 32 c0 36 37 73
52 50 6 -9 8 -9 8 1 0 18 39 72 51 72 5 0 9 -7 9 -15 0 -9 8 -6 25 11 30 30
33 79 9 126 -15 29 -15 32 1 44 15 11 16 22 10 81 -6 49 -10 61 -14 43 -4 -14
-2 -42 3 -63 8 -30 7 -40 -6 -54 -18 -17 -16 -21 -31 52 -3 13 -5 10 -6 -10
l-1 -30 -20 32 c-11 18 -18 38 -16 45 1 7 1 9 -2 5 -8 -16 -30 14 -26 36 4 20
4 20 -4 2 -9 -19 -9 -19 -21 3 -12 22 -5 72 9 72 15 0 50 -52 50 -74 1 -20 1
-20 12 -2 10 18 11 18 30 -5 15 -19 17 -20 9 -3 -6 12 -6 26 0 35 7 12 9 12 9
0 0 -8 3 -12 6 -8 8 8 -25 119 -34 113 -10 -6 -74 59 -101 104 -11 19 -21 31
-21 25 0 -5 9 -23 20 -40 29 -44 24 -53 -10 -20 -23 22 -30 38 -30 67 0 35 2
38 19 28 34 -17 81 -71 81 -91 0 -10 4 -19 9 -19 5 0 13 -9 16 -21 4 -11 9
-18 12 -16 2 3 -8 29 -23 59 -86 170 -221 306 -391 392 -51 25 -83 35 -53 16
12 -8 9 -10 -12 -10 -28 0 -38 15 -15 23 6 2 -13 12 -44 21 -40 12 -63 14 -80
7 -21 -8 -18 -10 22 -10 49 -1 87 -21 75 -40 -4 -6 -19 -9 -34 -6 -22 4 -23 4
-7 -4 18 -8 17 -9 -10 -13 -25 -4 -24 -5 11 -7 32 -1 45 -7 58 -26 19 -29 8
-32 -34 -10 -38 20 -40 11 -2 -9 l27 -15 -31 -1 c-20 0 -39 9 -54 25 -13 14
-20 25 -15 25 5 0 -9 16 -31 35 -29 26 -35 34 -21 35 17 0 17 1 3 16 -9 8 -14
20 -11 25 4 5 -9 9 -27 9 -18 0 -58 2 -88 5 -37 3 -44 2 -20 -3z m114 -18 c31
-12 17 -34 -21 -35 -37 -1 -37 -1 -8 -8 30 -7 30 -7 -12 -15 -33 -6 -49 -4
-73 11 l-31 18 38 17 c39 18 80 22 107 12z m-104 -64 l25 -20 -45 -1 c-44 -1
-44 -1 -12 -9 18 -4 41 -6 51 -3 10 2 23 -3 30 -11 8 -9 19 -16 25 -16 6 0 -2
11 -18 23 l-29 24 48 12 c46 12 49 11 74 -14 l26 -25 -35 5 c-27 4 -30 3 -15
-4 l20 -10 -20 -1 c-11 0 -31 -7 -45 -15 -24 -14 -24 -14 -3 -15 27 0 37 -14
20 -27 -17 -13 -139 -15 -131 -2 3 6 18 8 33 5 25 -6 24 -5 -6 15 -35 22 -41
34 -20 43 6 3 0 3 -15 0 -14 -3 -39 1 -55 9 l-28 15 45 21 c55 25 49 25 80 1z
m407 -33 c10 -8 23 -16 28 -17 21 -4 64 -34 59 -42 -3 -4 1 -8 9 -8 18 0 57
-37 57 -55 0 -23 -18 -18 -64 16 l-41 31 35 -32 35 -32 -30 7 c-16 3 -35 11
-42 16 -16 14 -34 69 -22 69 5 0 9 8 9 18 0 14 -2 15 -10 2 -7 -12 -15 -13
-37 -4 -58 23 -67 25 -33 5 l35 -20 -37 -1 c-29 0 -41 6 -57 29 -12 16 -21 32
-21 36 0 14 110 -2 127 -18z m-207 -42 c13 -14 20 -25 15 -25 -5 0 0 -7 11
-15 16 -13 17 -16 4 -25 -20 -13 -48 -4 -89 29 -44 34 -48 48 -19 54 46 9 55
7 78 -18z m228 -52 c18 -33 15 -36 -17 -14 -33 24 -55 29 -25 6 18 -14 18 -14
-5 -15 -13 0 -30 8 -37 18 -13 16 -14 16 -8 -2 7 -17 5 -17 -25 -2 -17 9 -31
14 -31 11 0 -2 18 -14 40 -25 44 -23 54 -50 17 -50 -21 0 -58 32 -97 84 -14
17 -12 18 37 15 28 -2 49 -1 47 3 -7 11 70 14 82 3 6 -6 16 -20 22 -32z m-2
-43 c8 0 19 -12 24 -26 14 -37 13 -38 -22 -14 -29 19 -29 18 5 -10 37 -32 48
-60 24 -60 -24 0 -59 33 -78 74 l-18 41 22 6 c12 3 24 2 25 -3 2 -4 10 -8 18
-8z m244 -101 c0 -27 -9 -24 -55 19 -27 25 -31 27 -12 6 15 -16 27 -33 27 -37
0 -9 -90 40 -120 66 l-25 22 24 -27 c14 -16 21 -28 16 -28 -5 0 0 -6 10 -14
11 -8 24 -12 31 -9 6 2 28 -6 48 -17 29 -18 36 -28 36 -53 l-1 -32 -27 30
c-15 17 -23 25 -18 18 11 -17 3 -25 -18 -17 -9 3 -16 14 -16 23 0 13 -2 13 -9
2 -7 -11 -13 -8 -26 13 -10 15 -20 24 -23 22 -2 -3 7 -19 22 -36 27 -32 34
-60 16 -60 -18 0 -60 48 -60 67 0 13 -2 15 -9 5 -6 -10 -10 -10 -21 3 -10 12
-10 15 5 15 13 0 16 6 13 25 -5 22 -2 25 16 20 20 -5 20 -5 -1 6 -17 9 -43 54
-43 75 0 2 12 -1 27 -7 14 -5 33 -7 40 -5 8 3 12 2 9 -3 -3 -5 1 -11 9 -15 8
-3 15 -1 15 5 0 6 10 8 23 5 12 -3 16 -3 10 0 -7 3 -13 13 -13 22 0 11 18 -2
50 -36 28 -30 50 -62 50 -73z m-290 38 c0 -4 -9 -2 -20 5 -13 9 -16 14 -7 20
11 6 27 -8 27 -25z m340 -91 c0 -5 -9 -1 -20 9 -11 10 -20 25 -20 34 0 12 6 9
20 -9 11 -14 20 -29 20 -34z m-106 -37 c-2 -4 3 -12 11 -19 8 -7 15 -27 15
-44 -1 -33 0 -33 -38 21 -7 10 -3 0 9 -23 11 -23 19 -49 18 -59 -4 -16 -6 -16
-28 2 -19 15 -25 32 -29 75 -4 55 -4 56 21 55 14 -1 23 -5 21 -8z m-54 -45 c0
-20 -7 -17 -20 6 -9 16 -8 18 5 14 8 -4 15 -12 15 -20z m135 -14 c16 -17 35
-28 42 -26 6 3 26 -11 42 -30 32 -36 47 -76 36 -94 -20 -32 -84 28 -86 81 l-1
34 -7 -30 -7 -30 -22 45 c-20 41 -23 38 -5 -7 6 -16 4 -16 -15 1 -14 12 -22
31 -22 53 0 41 8 41 45 3z m30 -221 c12 -21 13 -34 5 -48 -5 -11 -10 -23 -10
-28 1 -4 8 5 16 21 18 32 26 27 48 -24 13 -33 13 -38 -5 -60 l-19 -25 -1 45
-1 45 -8 -40 c-4 -22 -6 -44 -4 -50 2 -5 -5 -21 -16 -35 l-20 -25 -1 25 c-1
19 -3 17 -8 -10 -4 -23 -12 -35 -21 -34 -9 1 -16 -7 -16 -16 0 -16 3 -16 27 4
15 11 34 33 43 49 18 29 32 34 39 15 2 -7 3 -5 2 4 -2 9 6 31 18 50 l20 33 18
-40 c21 -46 24 -78 9 -106 -19 -34 -30 -20 -32 39 l-2 57 -4 -50 c-3 -40 -6
-46 -13 -30 -8 17 -9 16 -4 -6 3 -19 -2 -32 -20 -49 -27 -26 -30 -21 -16 28 6
20 6 30 0 27 -5 -4 -9 -16 -10 -28 0 -21 -1 -21 -10 -2 -7 16 -8 12 -5 -16 4
-30 0 -41 -21 -60 -16 -15 -24 -18 -21 -9 3 8 8 26 12 40 5 21 5 22 -4 5 -5
-11 -14 -32 -20 -47 -5 -16 -14 -28 -20 -28 -18 0 -23 30 -10 58 7 15 14 51
16 81 2 35 12 69 30 99 25 42 28 44 40 27 8 -10 14 -14 14 -9 0 6 -7 19 -15
30 -8 10 -15 33 -16 49 -1 20 -4 13 -8 -20 -4 -34 -10 -49 -19 -47 -8 1 -11
-2 -7 -8 3 -5 2 -18 -3 -27 -17 -29 -12 107 5 149 17 42 26 41 48 -3z m-166
-520 c-20 -12 -22 -4 -7 20 11 18 14 19 16 5 2 -9 -2 -20 -9 -25z m-69 -83 c0
-7 -9 -16 -21 -19 -20 -5 -20 -5 -3 14 20 23 24 23 24 5z"/>
<path d="M1138 1833 c7 -3 16 -2 19 1 4 3 -2 6 -13 5 -11 0 -14 -3 -6 -6z"/>
<path d="M1588 1813 c7 -3 16 -2 19 1 4 3 -2 6 -13 5 -11 0 -14 -3 -6 -6z"/>
<path d="M1681 1674 c0 -11 3 -14 6 -6 3 7 2 16 -1 19 -3 4 -6 -2 -5 -13z"/>
<path d="M1700 1969 c0 -5 4 -8 9 -5 5 3 14 -1 20 -8 14 -16 11 -19 -42 -36
-32 -10 -36 -14 -26 -26 21 -25 47 -35 55 -22 4 7 4 10 -1 6 -4 -4 -14 -3 -22
3 -15 13 -17 29 -4 29 5 0 25 7 46 15 l37 16 -25 19 c-28 22 -47 26 -47 9z"/>
<path d="M948 1963 c7 -3 16 -2 19 1 4 3 -2 6 -13 5 -11 0 -14 -3 -6 -6z"/>
<path d="M1278 1963 c6 -2 18 -2 25 0 6 3 1 5 -13 5 -14 0 -19 -2 -12 -5z"/>
<path d="M857 1944 c-26 -8 -45 -19 -43 -23 8 -13 -31 -44 -45 -36 -8 6 -4 12
12 21 44 24 9 14 -44 -12 -208 -106 -364 -287 -437 -507 -16 -51 -19 -72 -11
-80 8 -8 11 -2 11 22 0 18 5 41 10 52 13 23 40 25 40 3 0 -11 9 -7 29 15 38
40 57 41 36 1 -19 -37 -19 -54 0 -20 l14 25 1 -31 c0 -39 -36 -77 -50 -54 -8
13 -10 13 -10 -1 0 -19 -37 -69 -51 -69 -5 0 -9 8 -9 17 0 9 -2 14 -4 12 -2
-2 0 -35 4 -74 7 -67 7 -68 9 -20 2 40 4 46 12 30 8 -17 9 -16 6 7 -3 19 3 34
20 50 l25 23 -5 -35 c-2 -19 -2 -26 1 -15 l4 20 9 -20 c7 -15 8 -11 5 16 -4
30 0 42 21 60 l25 24 -6 -30 c-6 -28 -5 -28 7 4 15 40 34 51 44 26 8 -22 -22
-79 -58 -109 -22 -19 -25 -28 -20 -57 l5 -34 6 40 c6 47 33 56 38 13 3 -26
-28 -101 -48 -113 -5 -3 -16 11 -25 31 -14 33 -14 39 0 54 8 9 15 20 15 25 0
10 -40 -33 -70 -75 l-23 -32 -13 23 -14 24 3 -25 c1 -16 -3 -24 -10 -23 -15 3
-17 -29 -6 -103 5 -40 8 -44 13 -24 3 14 1 42 -4 62 -7 28 -6 40 4 53 16 19
29 5 31 -35 1 -20 3 -19 9 10 5 19 7 37 5 40 -2 3 5 17 16 30 l19 25 1 -45 c2
-41 3 -42 6 -10 l5 35 16 -35 c9 -19 19 -46 23 -60 5 -20 7 -17 8 17 1 49 15
63 32 32 11 -21 8 -65 -6 -101 -5 -13 -2 -18 9 -18 20 0 36 -31 36 -72 0 -25
3 -29 10 -18 8 12 10 12 10 1 0 -8 2 -12 4 -10 6 6 -28 103 -37 107 -4 1 -11
2 -16 2 -5 0 -7 10 -3 22 4 18 6 19 11 5 3 -9 5 49 5 128 -1 80 2 145 5 145 4
0 12 19 19 43 7 23 15 49 19 57 3 8 -2 6 -11 -5 -13 -17 -15 -17 -16 -4 0 9 7
22 15 29 8 7 15 9 15 4 0 -5 16 17 35 49 70 116 150 193 265 256 32 17 47 31
39 34 -12 4 -11 7 1 16 12 9 10 11 -12 11 -15 0 -29 4 -33 9 -8 14 53 56 78
54 22 -3 22 -3 0 7 -13 5 -23 12 -23 14 0 13 74 54 89 50 9 -3 6 1 -7 9 l-24
14 24 17 c23 16 23 16 1 6 -21 -10 -27 -7 -24 13 1 10 -17 8 -72 -9z m68 -13
c3 -5 1 -12 -5 -16 -6 -4 -8 -10 -6 -14 8 -13 -51 -51 -81 -52 -27 -1 -27 -1
-4 -8 l24 -6 -28 -33 c-20 -24 -35 -32 -61 -32 -19 0 -34 3 -34 7 0 4 17 24
37 45 20 21 31 38 23 38 -9 0 -8 6 6 21 41 47 113 75 129 50z m-155 -66 c0 -8
-4 -15 -8 -15 -5 0 -17 -7 -28 -16 -18 -14 -18 -15 4 -4 35 17 36 7 3 -24 -23
-22 -36 -27 -66 -24 l-37 3 42 48 c42 48 90 65 90 32z m-112 -45 c-7 -11 -18
-20 -25 -20 -7 0 -10 -6 -7 -14 3 -9 -7 -27 -23 -43 -16 -15 -19 -20 -8 -10
31 25 38 21 20 -13 -10 -20 -27 -32 -52 -39 -20 -6 -39 -9 -41 -6 -5 5 49 105
58 105 3 0 22 14 40 30 39 35 56 39 38 10z m29 -75 c-20 -14 -37 -28 -37 -31
0 -2 11 3 25 12 27 17 32 9 12 -17 -10 -14 -77 -33 -77 -22 0 2 7 17 15 32 8
16 11 32 7 36 -4 5 -1 5 6 1 6 -4 12 -2 12 3 0 6 17 11 37 11 l38 0 -38 -25z
m97 4 c-5 -8 -1 -8 14 0 16 9 24 8 36 -5 17 -17 21 -28 7 -20 -5 3 -14 -1 -21
-9 -7 -8 -19 -15 -27 -15 -8 0 -23 -10 -33 -22 -10 -13 -22 -19 -26 -15 -5 4
-2 12 6 17 11 7 6 10 -17 10 -33 0 -43 13 -22 25 6 4 8 14 5 22 -3 8 -2 11 3
8 5 -3 12 -1 16 5 3 5 20 10 36 10 19 0 28 -4 23 -11z m-256 -34 c-6 -14 -18
-25 -26 -25 -12 0 -10 6 8 25 13 14 25 25 27 25 1 0 -3 -11 -9 -25z m-18 -46
c0 -6 -12 -27 -26 -47 l-26 -37 31 35 c17 19 31 30 31 25 0 -5 6 -2 13 7 6 9
26 19 42 23 l30 6 -35 -38 c-26 -28 -28 -32 -6 -13 l28 25 -6 -25 c-4 -17 0
-13 14 13 16 29 26 37 48 37 l27 -1 -28 -24 c-37 -33 -24 -32 15 0 32 27 58
33 58 12 0 -30 -38 -49 -145 -73 -16 -3 -24 -9 -17 -11 9 -3 7 -13 -9 -36 -18
-28 -17 -28 13 6 18 20 39 37 46 37 24 0 12 -39 -20 -65 -18 -15 -27 -24 -20
-20 16 8 15 -5 -3 -29 -15 -19 -15 -19 -15 2 0 24 -7 27 -30 12 -11 -7 -17 -5
-22 8 -6 14 -7 14 -7 -4 -1 -12 -12 -26 -26 -32 -34 -16 -35 -16 -36 11 -1 18
-2 18 -8 -6 -6 -27 -71 -80 -71 -58 0 6 -7 8 -16 4 -13 -5 -15 -2 -9 18 4 13
14 31 21 40 8 8 14 22 14 29 0 19 30 50 48 50 9 0 13 -7 10 -18 -3 -11 0 -19
8 -19 8 0 14 6 14 13 0 7 8 18 18 24 14 8 12 9 -10 4 -27 -6 -27 -6 -16 33 18
65 37 92 66 93 6 0 12 -5 12 -11z m-87 -81 c-3 -16 -12 -28 -20 -28 -12 0 -11
5 3 30 21 35 24 34 17 -2z m247 19 c0 -2 -9 -12 -20 -22 -17 -16 -20 -16 -20
-2 0 8 8 18 18 20 9 3 18 5 20 6 1 0 2 -1 2 -2z m-170 -209 c-24 -21 -46 -38
-51 -38 -5 0 -9 18 -9 40 0 34 4 42 31 56 l32 16 -22 -36 c-13 -20 -20 -36
-18 -36 3 0 16 17 28 38 31 51 43 57 47 24 3 -21 -5 -35 -38 -64z m-30 -160
c0 -16 -3 -19 -11 -11 -6 6 -8 16 -5 22 11 17 16 13 16 -11z m-10 -125 c0 -19
-3 -24 -10 -17 -6 6 -8 18 -4 27 9 24 14 21 14 -10z"/>
<path d="M853 1890 c-35 -14 -27 -20 10 -8 17 6 34 13 36 14 8 7 -24 3 -46 -6z"/>
<path d="M794 1804 c-18 -14 -18 -14 6 -3 31 14 36 19 24 19 -6 0 -19 -7 -30
-16z"/>
<path d="M750 1730 c-9 -6 -10 -10 -3 -10 6 0 15 5 18 10 8 12 4 12 -15 0z"/>
<path d="M493 1581 c-8 -13 -9 -21 -2 -23 6 -2 1 -15 -10 -30 -12 -14 -21 -30
-21 -34 0 -5 7 2 16 14 8 12 20 20 25 17 5 -4 9 1 9 9 0 8 8 23 18 32 15 16
15 17 0 11 -11 -4 -18 0 -20 9 -2 11 -6 10 -15 -5z"/>
<path d="M390 1479 c-7 -11 -10 -23 -7 -25 2 -2 9 7 15 21 14 30 7 33 -8 4z"/>
<path d="M1308 1908 c5 -5 16 -8 23 -6 8 3 3 7 -10 11 -17 4 -21 3 -13 -5z"/>
<path d="M423 1895 c-21 -15 -21 -15 13 -51 18 -21 30 -42 27 -48 -3 -6 8 2
25 18 17 16 28 34 25 39 -3 6 -10 1 -14 -11 -10 -26 -22 -28 -39 -7 -10 12 -9
16 4 21 9 3 16 11 16 17 0 5 -9 2 -20 -8 -19 -17 -20 -17 -26 0 -5 12 -1 23
11 31 26 19 5 18 -22 -1z"/>
<path d="M1820 1893 c0 -5 -20 -18 -45 -27 -25 -10 -42 -22 -39 -27 3 -6 11
-5 20 2 11 9 17 9 29 -1 18 -15 20 -37 4 -42 -7 -2 -3 -10 7 -18 11 -8 16 -11
12 -6 -4 5 2 31 12 59 13 34 16 55 10 61 -7 7 -10 6 -10 -1z m0 -32 c0 -12
-20 -25 -27 -18 -7 7 6 27 18 27 5 0 9 -4 9 -9z"/>
<path d="M346 1819 c-15 -17 -23 -36 -19 -42 5 -8 9 -6 11 6 5 26 27 21 55
-13 23 -27 26 -28 38 -12 7 9 10 14 5 10 -5 -4 -24 5 -43 19 -31 24 -33 28
-18 39 9 7 12 15 7 18 -6 3 -22 -8 -36 -25z"/>
<path d="M1880 1831 c0 -7 -11 -28 -25 -48 -13 -20 -22 -40 -19 -45 3 -4 24 2
47 13 l41 22 -28 -37 c-15 -21 -26 -40 -22 -43 8 -8 106 29 100 39 -3 4 -19 1
-35 -8 -40 -20 -47 -12 -19 23 26 33 15 39 -34 19 -35 -14 -36 -14 -26 4 6 10
19 25 30 33 18 13 19 16 5 27 -11 9 -15 9 -15 1z"/>
<path d="M870 1790 c-18 -12 -2 -12 25 0 13 6 15 9 5 9 -8 0 -22 -4 -30 -9z"/>
<path d="M955 1769 c-3 -4 -19 -10 -35 -14 -16 -4 -33 -11 -37 -17 -4 -8 0 -9
11 -5 10 4 28 10 41 13 23 6 24 4 18 -30 -4 -26 0 -43 13 -63 11 -16 22 -35
26 -43 4 -8 7 13 7 48 l1 62 40 0 c27 0 47 -7 60 -20 11 -11 20 -16 20 -11 0
20 -46 41 -87 41 l-43 0 0 -47 c-1 -44 -2 -47 -15 -29 -28 37 -14 97 25 108 9
3 4 7 -13 10 -15 3 -30 2 -32 -3z"/>
<path d="M290 1751 c0 -5 16 -19 35 -32 19 -13 35 -28 35 -32 0 -5 5 -5 10 -2
6 3 -5 18 -22 33 -18 15 -34 30 -36 35 -5 10 -22 9 -22 -2z"/>
<path d="M1150 1700 c8 -5 20 -10 25 -10 6 0 3 5 -5 10 -8 5 -19 10 -25 10 -5
0 -3 -5 5 -10z"/>
<path d="M1200 1680 c8 -5 20 -10 25 -10 6 0 3 5 -5 10 -8 5 -19 10 -25 10 -5
0 -3 -5 5 -10z"/>
<path d="M236 1673 c-3 -4 -6 -11 -6 -16 0 -6 3 -7 6 -4 6 6 63 -28 74 -45 3
-4 14 6 23 22 13 21 14 31 6 36 -7 4 -9 3 -6 -3 4 -6 0 -16 -7 -23 -16 -12
-41 -3 -69 24 -8 8 -17 12 -21 9z"/>
<path d="M1977 1673 c-4 -3 -7 -19 -7 -34 0 -15 -4 -30 -9 -33 -13 -8 -34 21
-25 36 6 11 4 11 -7 0 -18 -16 0 -47 27 -47 14 0 20 8 22 30 5 40 21 56 28 27
4 -12 10 -19 15 -16 5 3 5 14 -1 25 -11 19 -31 25 -43 12z"/>
<path d="M1121 1643 c-1 -31 27 -64 54 -63 5 1 -1 7 -15 14 -16 9 -27 26 -31
48 l-6 33 -2 -32z"/>
<path d="M1400 1666 c0 -2 7 -6 15 -10 8 -3 15 -1 15 4 0 6 -7 10 -15 10 -8 0
-15 -2 -15 -4z"/>
<path d="M120 1619 c-12 -23 -20 -43 -18 -45 3 -2 14 17 26 41 27 56 20 60 -8
4z"/>
<path d="M1160 1650 c8 -5 20 -10 25 -10 6 0 3 5 -5 10 -8 5 -19 10 -25 10 -5
0 -3 -5 5 -10z"/>
<path d="M1210 1656 c0 -2 7 -7 16 -10 8 -3 12 -2 9 4 -6 10 -25 14 -25 6z"/>
<path d="M1260 1623 c-23 -58 -23 -61 0 -20 12 21 20 43 18 48 -2 6 -10 -7
-18 -28z"/>
<path d="M1346 1639 c-25 -20 -35 -53 -17 -63 4 -3 6 5 3 19 -3 19 3 28 29 44
19 12 29 21 23 21 -6 0 -23 -9 -38 -21z"/>
<path d="M1030 1631 c0 -11 4 -22 9 -26 6 -3 8 4 6 15 -3 13 1 20 12 20 10 0
13 -6 9 -16 -6 -14 -4 -15 9 -4 13 11 13 15 3 21 -24 15 -48 10 -48 -10z"/>
<path d="M1200 1636 c0 -2 7 -7 16 -10 8 -3 12 -2 9 4 -6 10 -25 14 -25 6z"/>
<path d="M1393 1604 c-12 -19 -18 -34 -13 -34 9 0 44 59 38 65 -2 1 -13 -13
-25 -31z"/>
<path d="M821 1616 c2 -2 20 -6 39 -10 25 -4 31 -3 20 4 -14 9 -69 15 -59 6z"/>
<path d="M1200 1610 c8 -5 20 -10 25 -10 6 0 3 5 -5 10 -8 5 -19 10 -25 10 -5
0 -3 -5 5 -10z"/>
<path d="M196 1594 c-40 -40 7 -110 58 -86 35 16 39 50 11 78 -28 28 -47 30
-69 8z m62 -16 c16 -16 15 -43 -3 -58 -29 -24 -85 36 -58 63 11 11 48 8 61 -5z"/>
<path d="M778 1603 c6 -2 18 -2 25 0 6 3 1 5 -13 5 -14 0 -19 -2 -12 -5z"/>
<path d="M728 1593 c6 -2 18 -2 25 0 6 3 1 5 -13 5 -14 0 -19 -2 -12 -5z"/>
<path d="M908 1591 c10 -6 4 -16 -23 -39 -20 -18 -32 -32 -27 -32 4 0 23 15
40 33 30 31 33 47 8 47 -6 0 -5 -4 2 -9z"/>
<path d="M2025 1579 c-16 -10 -38 -19 -47 -19 -11 0 -15 -5 -12 -15 5 -13 8
-13 21 0 25 26 34 16 18 -22 -8 -20 -14 -38 -11 -40 2 -2 9 10 16 27 13 32 29
37 62 19 16 -8 19 -8 16 2 -2 7 -12 13 -22 15 -10 1 -25 5 -34 9 -16 6 -16 7
1 16 9 6 22 7 27 4 6 -3 7 1 4 9 -3 9 -7 16 -8 15 0 0 -14 -9 -31 -20z"/>
<path d="M690 1575 c0 -8 2 -15 4 -15 2 0 6 7 10 15 3 8 1 15 -4 15 -6 0 -10
-7 -10 -15z"/>
<path d="M991 1554 c6 -7 17 -10 25 -7 20 7 18 10 -11 15 -20 4 -23 2 -14 -8z"/>
<path d="M86 1545 c-9 -26 -7 -32 5 -12 6 10 9 21 6 23 -2 3 -7 -2 -11 -11z"/>
<path d="M1532 1548 c-7 -7 -12 -17 -12 -22 0 -6 5 -3 11 7 26 44 60 4 70 -83
l6 -55 1 50 c3 78 -41 138 -76 103z"/>
<path d="M702 1530 c0 -14 2 -19 5 -12 2 6 2 18 0 25 -3 6 -5 1 -5 -13z"/>
<path d="M1175 1520 c-9 -16 -13 -30 -11 -30 3 0 12 14 21 30 9 17 13 30 11
30 -3 0 -12 -13 -21 -30z"/>
<path d="M1286 1535 c-3 -8 -1 -15 4 -15 6 0 10 4 10 9 0 5 12 12 28 14 26 4
26 4 -4 6 -20 0 -34 -5 -38 -14z"/>
<path d="M1383 1533 c9 -2 25 -2 35 0 9 3 1 5 -18 5 -19 0 -27 -2 -17 -5z"/>
<path d="M1463 1523 c9 -2 25 -2 35 0 9 3 1 5 -18 5 -19 0 -27 -2 -17 -5z"/>
<path d="M806 1505 c4 -8 1 -15 -5 -15 -6 0 -11 5 -11 10 0 6 -10 9 -22 9 -17
-1 -19 -2 -5 -6 21 -6 22 -17 0 -34 -31 -26 -93 -111 -92 -127 0 -11 4 -9 10
7 5 14 30 49 55 78 37 42 52 53 76 53 25 0 29 -3 25 -20 -3 -11 -2 -20 2 -20
4 0 7 -13 6 -30 -1 -16 2 -27 7 -24 4 3 8 1 8 -5 0 -13 -37 -37 -71 -45 -25
-5 -49 -36 -30 -36 5 0 12 7 15 16 4 10 14 14 26 11 10 -3 21 0 23 6 2 6 9 7
16 3 7 -5 10 -14 7 -22 -3 -8 -1 -14 4 -14 6 0 10 6 10 14 0 29 52 76 98 90
26 8 39 15 30 15 -30 2 -72 -19 -105 -52 -18 -17 -33 -26 -33 -21 0 6 4 14 9
20 14 13 -7 106 -27 122 -15 11 -15 14 -2 22 12 8 11 10 -7 10 -16 0 -21 -4
-17 -15z"/>
<path d="M1011 1504 c0 -11 3 -14 6 -6 3 7 2 16 -1 19 -3 4 -6 -2 -5 -13z"/>
<path d="M1334 1485 c28 -41 56 -64 56 -45 0 5 -6 10 -14 10 -8 0 -17 8 -21
19 -3 10 -15 27 -27 37 -16 15 -15 11 6 -21z"/>
<path d="M61 1479 c-6 -18 -11 -37 -10 -43 0 -6 7 7 15 28 8 22 12 41 10 43
-2 2 -9 -10 -15 -28z"/>
<path d="M1095 1490 c-10 -11 -14 -20 -9 -20 5 0 15 9 22 20 7 11 11 20 9 20
-2 0 -12 -9 -22 -20z"/>
<path d="M1473 1484 c-37 -29 -41 -48 -15 -64 13 -8 6 -10 -36 -8 -28 2 -52 0
-52 -4 0 -5 25 -8 55 -8 35 0 55 -4 55 -12 0 -6 7 -20 17 -30 15 -17 15 -19
-2 -38 -10 -11 -14 -20 -9 -20 5 0 15 9 22 21 11 18 11 24 -2 37 -8 10 -18 29
-21 45 -4 15 -13 27 -21 27 -8 0 -14 7 -14 15 0 17 29 34 47 28 7 -2 20 0 30
6 15 9 12 10 -12 5 -21 -5 -27 -3 -20 4 6 6 24 12 40 15 l30 4 -30 1 c-19 1
-42 -8 -62 -24z"/>
<path d="M718 1493 c7 -3 16 -2 19 1 4 3 -2 6 -13 5 -11 0 -14 -3 -6 -6z"/>
<path d="M1202 1461 c-16 -53 -17 -51 31 -49 l42 1 -38 4 c-30 3 -37 8 -33 20
11 27 18 63 14 63 -3 0 -10 -17 -16 -39z"/>
<path d="M146 1481 c-14 -22 -25 -62 -16 -56 12 8 80 -16 80 -28 0 -4 5 -5 10
-2 20 12 11 33 -12 27 -17 -4 -20 -2 -16 15 9 36 -29 73 -46 44z m34 -32 c0
-21 -7 -23 -29 -10 -12 8 -12 12 -2 25 16 19 31 12 31 -15z"/>
<path d="M1050 1451 c0 -11 -7 -22 -15 -24 -12 -4 -12 -5 1 -3 18 1 41 46 24
46 -6 0 -10 -9 -10 -19z"/>
<path d="M2008 1446 c3 -11 7 -15 10 -8 6 18 20 14 33 -10 10 -18 8 -24 -7
-35 -9 -7 -15 -15 -12 -18 8 -8 87 58 87 72 1 7 -5 10 -12 8 -7 -3 -33 -1 -58
3 -44 8 -46 8 -41 -12z m87 -16 c-3 -5 -13 -10 -21 -10 -8 0 -14 5 -14 10 0 6
9 10 21 10 11 0 17 -4 14 -10z"/>
<path d="M41 1404 c0 -11 3 -14 6 -6 3 7 2 16 -1 19 -3 4 -6 -2 -5 -13z"/>
<path d="M2202 1410 c0 -8 4 -26 8 -40 6 -20 8 -21 8 -5 0 11 -3 29 -8 40 -5
12 -8 14 -8 5z"/>
<path d="M1310 1394 c41 -18 90 -62 90 -81 0 -7 5 -13 11 -13 6 0 2 14 -9 33
-21 33 -85 77 -112 76 -8 0 1 -7 20 -15z"/>
<path d="M31 1364 c0 -11 3 -14 6 -6 3 7 2 16 -1 19 -3 4 -6 -2 -5 -13z"/>
<path d="M1592 1350 c0 -14 2 -19 5 -12 2 6 2 18 0 25 -3 6 -5 1 -5 -13z"/>
<path d="M336 1334 c-4 -14 -5 -28 -3 -31 3 -2 8 8 11 23 4 14 5 28 3 31 -3 2
-8 -8 -11 -23z"/>
<path d="M22 1315 c0 -16 2 -22 5 -12 2 9 2 23 0 30 -3 6 -5 -1 -5 -18z"/>
<path d="M2222 1320 c0 -14 2 -19 5 -12 2 6 2 18 0 25 -3 6 -5 1 -5 -13z"/>
<path d="M1575 1310 c-3 -5 -1 -10 4 -10 6 0 11 5 11 10 0 6 -2 10 -4 10 -3 0
-8 -4 -11 -10z"/>
<path d="M274 1273 c1 -18 -1 -33 -6 -33 -11 0 -10 -87 1 -95 6 -3 8 8 4 28
-3 19 -1 43 4 53 5 11 6 33 2 49 l-8 30 3 -32z"/>
<path d="M632 1270 c0 -19 2 -27 5 -17 2 9 2 25 0 35 -3 9 -5 1 -5 -18z"/>
<path d="M1613 1265 c0 -22 2 -30 4 -17 2 12 2 30 0 40 -3 9 -5 -1 -4 -23z"/>
<path d="M13 1245 c0 -22 2 -30 4 -17 2 12 2 30 0 40 -3 9 -5 -1 -4 -23z"/>
<path d="M2232 1250 c0 -19 2 -27 5 -17 2 9 2 25 0 35 -3 9 -5 1 -5 -18z"/>
<path d="M858 1263 l-178 -3 2 -58 2 -57 3 53 c6 84 23 60 22 -30 -1 -60 -4
-75 -9 -53 -5 20 -8 23 -9 10 0 -11 6 -42 14 -70 13 -46 14 -47 13 -15 0 19 0
74 1 123 l1 87 35 0 35 0 0 -87 1 -88 18 53 c30 86 71 117 116 88 15 -10 25
-12 25 -6 0 6 -15 17 -32 25 l-33 14 38 1 38 0 -5 -55 c-2 -30 0 -55 5 -55 5
0 9 25 9 55 0 30 5 55 10 55 6 0 10 -47 10 -121 0 -77 -4 -118 -10 -114 -5 3
-11 32 -12 63 l-1 57 -6 -50 -7 -50 -10 35 c-8 25 -8 39 0 49 9 12 7 12 -13 2
-14 -8 -37 -10 -57 -6 -28 5 -34 3 -34 -12 0 -15 2 -16 10 -3 5 8 10 10 10 4
0 -6 12 -9 29 -6 26 4 32 0 44 -31 8 -19 31 -47 51 -62 20 -15 36 -35 36 -44
0 -10 5 -7 13 9 7 14 23 26 35 28 20 3 22 9 22 78 0 67 -2 74 -20 74 -11 0
-20 4 -20 8 0 19 27 32 67 32 l43 0 0 -95 c0 -88 1 -95 20 -95 11 0 25 -8 31
-18 11 -17 14 -16 52 17 22 20 46 51 54 70 12 29 18 33 44 29 17 -3 29 0 29 6
0 6 5 4 10 -4 8 -13 10 -12 10 3 0 15 -5 17 -30 12 -41 -9 -65 1 -79 31 -15
33 6 70 44 80 14 3 25 10 25 15 0 5 5 9 11 9 6 0 9 -6 6 -12 -2 -7 4 -23 15
-34 10 -12 27 -43 38 -70 l19 -49 1 83 c0 48 4 82 10 82 6 0 10 -42 9 -107 -1
-71 -4 -99 -9 -83 -5 16 -6 4 -3 -32 4 -36 2 -58 -4 -58 -14 0 -30 20 -36 45
-2 11 -5 0 -5 -25 0 -25 2 -39 5 -32 2 6 9 12 14 12 12 0 11 -151 -2 -170 -7
-11 -9 -1 -7 36 2 31 -1 50 -7 48 -19 -7 -34 12 -38 51 -2 22 -2 -19 1 -91 3
-101 2 -133 -8 -139 -10 -6 -12 5 -7 55 3 40 2 58 -4 49 -5 -8 -9 -42 -9 -76
0 -34 -4 -65 -10 -68 -5 -3 -10 -2 -10 3 0 6 -11 13 -25 16 -18 5 -25 13 -25
31 0 19 4 23 18 18 11 -4 10 0 -5 11 -13 10 -23 27 -24 39 -1 29 -28 -80 -29
-116 0 -16 4 -26 9 -23 5 3 7 14 4 24 -2 10 0 34 6 53 11 33 11 33 7 -14 -3
-45 3 -64 18 -50 10 11 37 12 30 2 -3 -5 -11 -6 -17 -3 -7 4 -9 3 -4 -1 4 -5
-14 -20 -40 -35 -46 -25 -63 -23 -63 5 0 6 5 3 11 -5 9 -13 10 -12 5 3 -3 11
0 17 9 17 9 0 15 9 14 23 -1 16 -2 18 -6 5 -6 -23 -52 -35 -63 -17 -6 8 -10
-5 -13 -36 -2 -28 -3 -12 -2 35 1 58 7 96 19 118 10 19 16 36 13 38 -2 2 -14
-17 -26 -44 -18 -39 -21 -61 -19 -126 2 -52 7 -81 16 -84 8 -2 12 8 12 32 0
19 5 38 11 42 8 4 10 -7 8 -39 -2 -25 0 -43 5 -40 5 3 7 0 4 -8 -2 -8 -16 -15
-30 -17 -16 -2 -28 -12 -35 -30 l-10 -27 -7 27 c-6 19 -15 28 -34 30 -14 2
-28 9 -30 17 -3 8 -1 11 4 8 5 -3 9 17 9 43 0 43 -3 50 -23 55 -20 5 -23 11
-18 30 3 14 8 37 11 53 l5 27 -11 -25 c-6 -14 -13 -39 -15 -56 -4 -25 0 -33
16 -37 11 -3 20 -10 20 -17 0 -6 -4 -8 -10 -5 -5 3 -7 0 -4 -9 4 -10 -9 -7
-44 12 -28 15 -48 31 -45 36 4 5 1 6 -5 2 -6 -3 -13 -3 -16 2 -2 4 7 9 20 10
17 1 23 -2 18 -10 -4 -6 -3 -8 3 -5 6 4 9 28 7 54 -3 36 -2 43 5 28 7 -15 9
-8 4 25 -7 52 -13 65 -13 27 0 -15 -9 -33 -22 -43 -16 -11 -17 -15 -5 -11 13
5 17 1 17 -21 0 -20 -5 -28 -19 -29 -15 -1 -21 6 -24 30 -3 27 -4 25 -5 -11
-3 -66 -22 -40 -23 31 -1 34 -5 73 -9 87 -5 15 -6 -5 -3 -49 5 -59 4 -73 -7
-66 -10 6 -12 36 -8 129 3 74 2 105 -3 81 -4 -22 -8 -71 -9 -110 0 -54 -3 -66
-11 -52 -6 10 -9 43 -7 73 1 30 0 54 -4 54 -5 0 -8 -21 -8 -47 0 -35 -3 -44
-10 -33 -12 19 -13 170 -1 170 5 0 12 -10 14 -22 2 -13 4 2 4 32 1 30 -2 46
-4 35 -6 -25 -22 -45 -36 -45 -6 0 -7 20 -4 53 4 34 3 45 -3 32 -12 -28 -12
-93 1 -97 6 -2 9 -25 7 -58 -4 -51 -5 -53 -12 -22 -5 17 -12 32 -17 32 -18 0
33 -105 103 -209 53 -77 166 -202 229 -252 l38 -30 104 103 c103 102 178 202
232 307 27 55 27 56 26 238 -2 178 -2 183 18 183 19 0 21 -7 23 -87 1 -49 1
-104 0 -123 -2 -48 13 -12 21 50 5 32 4 38 -2 20 -7 -18 -9 -3 -10 58 -1 90
16 114 22 30 l3 -53 2 58 2 57 -157 1 c-87 1 -207 2 -268 3 -60 1 -190 0 -287
-1z m220 -33 c-1 -17 -6 -33 -11 -37 -6 -4 -8 4 -5 21 3 14 1 29 -3 32 -10 6
-13 -42 -9 -162 1 -51 -2 -84 -9 -88 -8 -5 -11 31 -11 123 0 130 2 138 37 140
7 1 11 -12 11 -29z m66 24 c20 -8 21 -34 1 -34 -8 0 -12 6 -9 13 3 8 -2 14
-11 14 -9 0 -14 -6 -11 -14 3 -7 -1 -13 -9 -13 -18 0 -20 26 -2 33 18 8 23 8
41 1z m60 0 c13 -5 16 -27 16 -136 0 -83 -4 -127 -10 -123 -6 4 -10 59 -10
132 0 70 -3 124 -6 120 -4 -3 -6 -58 -5 -122 1 -77 -2 -115 -9 -115 -7 0 -10
41 -9 125 0 69 5 125 9 125 5 0 15 -3 24 -6z m-384 -41 c0 -21 -5 -45 -10 -53
-7 -11 -10 0 -10 38 0 28 5 52 10 52 6 0 10 -17 10 -37z m30 25 c0 -7 -5 -20
-10 -28 -8 -12 -10 -9 -10 13 0 15 5 27 10 27 6 0 10 -6 10 -12z m30 2 c0 -5
-4 -10 -10 -10 -5 0 -10 5 -10 10 0 6 5 10 10 10 6 0 10 -4 10 -10z m140 -121
c0 -84 -4 -128 -10 -124 -6 4 -10 58 -10 131 0 76 4 124 10 124 6 0 10 -50 10
-131z m230 7 c0 -73 -4 -127 -10 -131 -6 -4 -10 40 -10 124 0 81 4 131 10 131
6 0 10 -48 10 -124z m30 10 c0 -66 -4 -117 -10 -121 -6 -4 -10 37 -10 114 0
74 4 121 10 121 6 0 10 -45 10 -114z m61 103 c-13 -5 -30 -17 -37 -27 -12 -15
-13 -14 -14 11 0 25 3 27 38 26 34 0 35 -1 13 -10z m79 -16 c0 -22 -2 -25 -10
-13 -13 20 -13 40 0 40 6 0 10 -12 10 -27z m30 -25 c0 -38 -3 -49 -10 -38 -13
20 -13 90 0 90 6 0 10 -24 10 -52z m-302 5 c-10 -2 -28 -2 -40 0 -13 2 -5 4
17 4 22 1 32 -1 23 -4z m-68 -128 c0 -37 -4 -65 -10 -65 -6 0 -10 28 -10 65 0
37 4 65 10 65 6 0 10 -28 10 -65z m229 2 c-14 -48 -19 -44 -19 13 0 48 1 52
14 35 9 -13 11 -28 5 -48z m171 -159 c0 -24 -5 -50 -10 -58 -7 -11 -10 2 -10
43 0 31 4 57 10 57 6 0 10 -19 10 -42z m-60 -101 c0 -29 -5 -59 -10 -67 -7
-10 -10 7 -10 58 0 46 4 71 10 67 6 -3 10 -30 10 -58z m-477 -182 c10 -7 17
-20 15 -28 -2 -9 -10 -5 -26 15 -25 30 -19 37 11 13z m375 -13 c-16 -20 -24
-24 -26 -15 -2 8 5 21 15 28 30 24 36 17 11 -13z m-328 -38 c0 -14 -4 -22 -10
-19 -5 3 -10 17 -10 31 0 14 4 22 10 19 6 -3 10 -17 10 -31z m281 -17 c-8 -8
-11 -4 -11 14 0 33 14 47 18 19 2 -12 -1 -27 -7 -33z m-251 -3 c0 -21 -4 -33
-10 -29 -5 3 -10 19 -10 36 0 16 5 29 10 29 6 0 10 -16 10 -36z m230 7 c0 -17
-4 -33 -10 -36 -6 -4 -10 8 -10 29 0 20 5 36 10 36 6 0 10 -13 10 -29z m-204
-36 c2 -21 -1 -33 -6 -30 -6 4 -10 22 -10 42 0 45 12 36 16 -12z m165 -28 c-7
-7 -9 2 -6 29 5 52 7 55 12 15 3 -18 0 -38 -6 -44z m-131 -12 c0 -8 -4 -15
-10 -15 -5 0 -10 7 -10 15 0 8 5 15 10 15 6 0 10 -7 10 -15z m45 -35 c6 0 16
12 22 28 l12 27 -2 -29 c-4 -59 -68 -57 -66 3 l1 26 11 -27 c6 -16 16 -28 22
-28z m65 35 c0 -8 -4 -15 -10 -15 -5 0 -10 7 -10 15 0 8 5 15 10 15 6 0 10 -7
10 -15z"/>
<path d="M150 1244 c-19 -7 -43 -13 -52 -13 -32 -1 -19 -19 25 -34 l42 -15
-43 -7 c-51 -9 -50 -23 3 -42 22 -7 43 -19 47 -26 5 -8 8 -4 8 11 0 13 -4 21
-9 17 -6 -3 -25 1 -43 9 l-33 14 43 7 c50 9 50 24 1 41 l-34 11 35 10 c24 7
37 6 42 -1 5 -6 8 -1 8 12 0 12 -1 21 -2 21 -2 -1 -19 -7 -38 -15z"/>
<path d="M2060 1242 c0 -13 4 -21 9 -18 5 4 16 3 25 0 13 -5 14 -9 5 -21 -7
-7 -18 -12 -26 -9 -7 3 -13 2 -13 -3 0 -19 15 -19 42 0 16 12 38 19 48 16 13
-3 20 0 20 10 0 9 -6 12 -19 8 -20 -6 -71 12 -83 30 -4 5 -8 0 -8 -13z"/>
<path d="M642 1180 c0 -19 2 -27 5 -17 2 9 2 25 0 35 -3 9 -5 1 -5 -18z"/>
<path d="M1603 1175 c0 -22 2 -30 4 -17 2 12 2 30 0 40 -3 9 -5 -1 -4 -23z"/>
<path d="M1095 1170 c4 -6 11 -8 16 -5 14 9 11 15 -7 15 -8 0 -12 -5 -9 -10z"/>
<path d="M2243 1120 c0 -36 2 -50 4 -32 2 17 2 47 0 65 -2 17 -4 3 -4 -33z"/>
<path d="M3 1120 c0 -30 2 -43 4 -27 2 15 2 39 0 55 -2 15 -4 2 -4 -28z"/>
<path d="M2120 1126 c0 -9 7 -12 21 -9 17 5 20 2 17 -17 -8 -54 -73 -50 -73 4
1 14 -3 26 -7 26 -13 0 -9 -55 4 -68 7 -7 24 -12 38 -12 14 0 31 5 38 12 17
17 15 65 -4 72 -25 9 -34 7 -34 -8z"/>
<path d="M652 1110 c0 -14 2 -19 5 -12 2 6 2 18 0 25 -3 6 -5 1 -5 -13z"/>
<path d="M1592 1110 c0 -14 2 -19 5 -12 2 6 2 18 0 25 -3 6 -5 1 -5 -13z"/>
<path d="M80 1076 c0 -8 8 -13 18 -12 12 1 17 -6 17 -24 0 -18 -5 -25 -17 -24
-10 1 -18 -4 -18 -12 0 -19 3 -18 60 11 52 26 64 45 30 45 -11 0 -36 7 -55 14
-29 12 -35 13 -35 2z m74 -37 c-8 -14 -24 -10 -24 6 0 9 6 12 15 9 8 -4 12
-10 9 -15z"/>
<path d="M661 1064 c0 -11 3 -14 6 -6 3 7 2 16 -1 19 -3 4 -6 -2 -5 -13z"/>
<path d="M832 1060 c0 -14 2 -19 5 -12 2 6 2 18 0 25 -3 6 -5 1 -5 -13z"/>
<path d="M873 1029 c0 -38 1 -46 6 -26 l6 28 18 -30 c10 -17 27 -36 38 -41 15
-9 19 -23 21 -73 l2 -62 3 57 c4 55 5 57 26 47 19 -9 22 -16 18 -62 -4 -69 4
-58 13 16 4 38 3 56 -4 52 -25 -16 -108 55 -133 114 l-14 34 0 -54z"/>
<path d="M1367 1060 c-3 -11 -2 -33 3 -48 7 -23 8 -19 8 21 -1 51 -3 58 -11
27z"/>
<path d="M1411 1064 c0 -11 3 -14 6 -6 3 7 2 16 -1 19 -3 4 -6 -2 -5 -13z"/>
<path d="M1581 1064 c0 -11 3 -14 6 -6 3 7 2 16 -1 19 -3 4 -6 -2 -5 -13z"/>
<path d="M330 1055 c0 -6 7 -20 15 -32 8 -12 13 -27 12 -35 -2 -7 -2 -10 0 -5
9 14 23 -4 24 -31 1 -18 3 -21 6 -9 6 25 33 3 33 -27 0 -17 2 -18 10 -6 8 13
10 12 10 -4 0 -11 2 -17 5 -14 9 9 -6 58 -16 52 -12 -7 -50 58 -44 74 14 35
15 44 0 20 -8 -16 -18 -28 -20 -28 -2 0 -11 12 -19 28 -8 15 -15 22 -16 17z"/>
<path d="M671 1024 c0 -11 3 -14 6 -6 3 7 2 16 -1 19 -3 4 -6 -2 -5 -13z"/>
<path d="M1571 1024 c0 -11 3 -14 6 -6 3 7 2 16 -1 19 -3 4 -6 -2 -5 -13z"/>
<path d="M13 995 c0 -22 2 -30 4 -17 2 12 2 30 0 40 -3 9 -5 -1 -4 -23z"/>
<path d="M1335 996 c-12 -17 -95 -71 -112 -71 -1 0 2 -25 7 -55 l8 -55 1 52
c1 41 5 55 21 63 18 10 19 6 23 -52 l3 -63 2 67 c2 58 5 69 23 79 l22 11 -5
-113 c-4 -89 -3 -108 6 -88 7 16 9 61 6 115 -4 65 -1 95 9 112 18 30 6 28 -14
-2z"/>
<path d="M2071 1001 c-12 -12 -21 -25 -21 -30 0 -44 49 -70 86 -46 26 17 32
56 12 73 -29 22 -57 23 -77 3z m69 -16 c20 -24 3 -55 -30 -55 -35 0 -59 33
-39 56 15 18 53 18 69 -1z"/>
<path d="M2233 985 c0 -22 2 -30 4 -17 2 12 2 30 0 40 -3 9 -5 -1 -4 -23z"/>
<path d="M721 995 c1 -19 18 -51 18 -35 0 8 -4 22 -9 30 -5 8 -9 11 -9 5z"/>
<path d="M1511 964 c-14 -49 -7 -56 9 -9 7 20 10 39 7 42 -3 3 -10 -12 -16
-33z"/>
<path d="M1972 960 c0 -14 2 -19 5 -12 2 6 2 18 0 25 -3 6 -5 1 -5 -13z"/>
<path d="M160 959 c-14 -6 -35 -8 -47 -6 -15 3 -23 -1 -23 -10 0 -9 7 -12 25
-7 28 7 33 -7 10 -26 -8 -7 -15 -20 -15 -28 0 -13 3 -12 14 4 11 15 23 20 45
16 30 -4 31 -3 31 32 0 39 -2 40 -40 25z m30 -29 c0 -21 -24 -28 -35 -10 -8
14 3 30 21 30 8 0 14 -9 14 -20z"/>
<path d="M299 954 c6 -12 6 -26 0 -35 -7 -12 -9 -12 -9 0 0 8 -3 12 -6 9 -8
-9 28 -118 37 -112 4 2 16 -6 26 -18 10 -13 29 -32 41 -42 23 -20 23 -20 16 0
-5 15 0 12 24 -10 18 -17 33 -39 33 -50 1 -17 2 -18 6 -3 6 23 20 22 28 -2 3
-11 13 -25 23 -33 15 -12 16 -11 3 5 -8 9 -12 20 -9 22 10 10 38 -7 38 -24 0
-12 2 -13 9 -3 6 11 13 7 30 -14 11 -14 21 -23 21 -19 0 4 -11 20 -25 37 -26
31 -33 58 -15 58 18 0 60 -48 60 -67 0 -13 2 -15 9 -5 6 10 10 10 21 -3 10
-12 10 -15 -5 -15 -13 0 -16 -6 -13 -25 5 -22 2 -25 -16 -20 -20 5 -20 5 1 -6
17 -9 43 -54 43 -75 0 -2 -22 5 -50 15 -27 11 -50 15 -50 9 0 -5 -10 -7 -22
-4 -13 3 -17 3 -10 0 6 -3 12 -13 12 -21 0 -14 -3 -14 -20 2 -11 10 -17 23
-13 29 3 6 3 8 -1 4 -12 -10 -66 50 -66 72 0 28 9 25 55 -17 27 -26 31 -28 12
-7 -15 16 -27 33 -27 37 0 9 90 -40 120 -66 l25 -22 -24 28 c-14 15 -21 27
-18 27 4 0 -1 8 -10 18 -11 11 -21 14 -25 8 -4 -7 -21 -2 -46 12 -21 12 -42
19 -45 15 -16 -16 -107 68 -107 98 0 11 -4 19 -9 19 -5 0 -13 9 -16 21 -4 11
-9 18 -12 16 -6 -7 43 -102 88 -168 41 -61 136 -161 187 -197 26 -19 32 -20
32 -8 0 9 -6 16 -13 16 -18 0 -57 38 -57 55 0 23 18 18 64 -16 l41 -31 -35 31
c-35 32 -31 38 14 21 29 -10 66 -72 47 -78 -19 -6 -12 -20 8 -15 10 3 32 -2
49 -11 44 -23 54 -19 12 4 l-35 19 37 1 c29 0 41 -6 57 -29 12 -16 21 -32 21
-36 0 -15 -110 2 -130 20 -11 10 -20 15 -20 11 0 -3 -12 1 -27 10 -26 15 -27
15 -8 -1 32 -27 146 -82 206 -99 40 -12 63 -14 89 -6 25 7 36 7 41 -2 4 -7 6
-15 4 -19 -7 -10 131 -19 201 -12 35 3 64 10 64 15 0 5 9 6 20 3 44 -14 300
87 300 118 0 7 9 23 20 35 11 12 20 25 20 31 0 5 16 23 35 40 20 17 32 31 27
31 -5 0 -17 -9 -27 -20 -27 -30 -38 -24 -20 10 10 20 27 32 52 39 20 6 39 9
41 7 7 -8 -49 -107 -64 -113 -9 -3 -30 -19 -47 -36 -44 -41 -14 -23 60 36 91
73 170 172 227 284 31 63 33 75 6 40 -11 -14 -20 -32 -20 -40 0 -16 -31 -47
-47 -47 -5 0 -15 10 -21 23 -8 17 -11 18 -11 5 -1 -10 -14 -24 -31 -33 -35
-18 -38 -10 -10 25 11 14 20 30 20 35 0 6 -9 -3 -19 -18 -13 -20 -20 -25 -24
-15 -3 7 -6 4 -6 -9 -1 -12 -9 -27 -18 -32 -16 -9 -16 -10 -1 -11 9 0 19 -6
21 -12 4 -10 6 -10 6 -1 1 12 51 43 68 43 4 0 8 -16 9 -35 0 -18 -2 -32 -6
-30 -3 2 -12 -10 -19 -27 -8 -17 -22 -33 -32 -35 -10 -3 -17 -9 -14 -13 2 -4
-7 -18 -22 -31 l-26 -24 17 32 c9 18 16 37 16 43 0 6 12 28 26 48 l26 37 -30
-35 c-18 -19 -32 -31 -32 -26 0 6 -6 3 -13 -6 -6 -9 -25 -19 -42 -23 l-30 -6
35 38 c26 28 28 32 6 13 l-28 -25 6 25 c4 17 0 13 -14 -12 -16 -30 -26 -38
-48 -38 l-27 1 30 24 c17 14 27 25 24 25 -12 0 -78 -57 -73 -63 4 -3 -4 -20
-16 -36 -16 -24 -29 -31 -53 -31 l-32 1 28 15 c43 23 32 27 -13 4 -23 -12 -38
-25 -35 -29 9 -16 -53 -60 -77 -55 -23 5 -23 4 1 -6 20 -9 21 -13 10 -26 -27
-32 -62 -43 -94 -29 -20 9 -24 14 -12 14 10 1 15 5 12 11 -4 6 7 8 27 5 27 -4
28 -3 8 3 l-25 8 23 15 c26 17 29 28 5 27 -10 0 -27 2 -38 6 -15 5 -14 4 3 -5
30 -16 28 -25 -9 -45 -27 -13 -36 -14 -58 -3 l-26 13 40 7 40 6 -39 2 c-33 1
-37 3 -26 16 7 8 21 15 32 15 11 0 16 4 12 11 -4 7 2 10 17 8 13 -1 38 3 54
10 17 6 36 14 44 17 8 2 12 7 9 9 -6 6 -71 -16 -78 -26 -3 -4 -11 -5 -18 0 -8
5 5 27 44 72 69 79 141 184 183 266 46 92 37 91 -12 -2 -69 -131 -124 -204
-243 -323 -92 -93 -107 -112 -84 -107 17 4 40 0 57 -8 l28 -15 -46 -22 c-45
-22 -46 -22 -75 -4 l-28 19 49 6 c31 4 39 6 20 7 -35 2 -118 70 -215 177 -76
84 -131 164 -187 270 -49 93 -58 94 -12 2 42 -81 114 -189 182 -268 31 -35 54
-66 52 -68 -2 -2 -25 4 -51 13 -53 18 -66 20 -46 7 11 -7 11 -9 -1 -14 -9 -3
-21 1 -27 9 -10 11 -10 14 1 14 8 0 -10 14 -40 30 -116 64 -194 138 -263 251
-34 55 -69 72 -76 36 -2 -9 -7 -17 -11 -17 -14 0 -51 46 -52 66 0 18 -1 18 -8
0 -6 -17 -10 -15 -34 14 -15 17 -27 41 -27 53 -1 21 -1 21 -12 3 -10 -18 -11
-18 -30 5 -15 19 -17 20 -9 3z m68 -65 c23 -27 33 -109 14 -109 -15 0 -70 68
-77 95 -13 51 25 59 63 14z m63 -64 c0 4 9 0 20 -10 20 -18 29 -85 12 -85 -5
0 -20 13 -35 28 -19 20 -27 38 -27 63 1 32 1 33 15 15 8 -11 15 -16 15 -11z
m110 -31 c6 -14 10 -43 10 -64 0 -34 -3 -38 -24 -36 -13 0 -22 3 -20 5 2 2 -3
12 -12 22 -13 14 -15 29 -9 68 6 46 9 50 26 40 11 -6 24 -21 29 -35z m40 -54
c9 -16 8 -18 -5 -14 -8 4 -15 12 -15 20 0 20 7 17 20 -6z m1270 -80 c-6 -11
-13 -20 -15 -20 -3 0 -5 9 -5 20 0 11 7 20 15 20 13 0 14 -4 5 -20z m-1410
-39 c0 -12 -6 -9 -20 9 -26 33 -26 48 0 25 11 -10 20 -25 20 -34z m264 -23
c14 -13 32 -39 41 -59 14 -36 14 -37 -10 -42 -14 -2 -25 0 -25 4 0 5 -7 9 -15
9 -9 0 -20 12 -25 26 -14 37 -13 38 23 14 28 -19 28 -18 -5 10 -39 33 -49 60
-24 60 8 0 26 -10 40 -22z m70 -50 c-3 -4 1 -8 9 -8 19 0 62 -34 88 -71 l22
-31 -51 3 c-27 2 -48 1 -46 -2 7 -12 -73 -15 -83 -4 -24 26 -45 81 -22 58 7
-7 25 -9 41 -6 21 4 33 1 43 -13 14 -18 15 -18 9 0 -7 17 -6 17 26 1 18 -9 30
-12 26 -7 -3 5 -19 15 -36 22 -20 8 -36 26 -45 48 -19 44 -19 45 4 30 11 -7
17 -16 15 -20z m852 -27 c-9 -16 -12 -32 -8 -36 4 -5 1 -5 -5 -1 -7 4 -13 2
-13 -3 0 -6 -17 -11 -37 -11 l-38 0 38 25 c20 14 37 28 37 31 0 3 -14 -5 -32
-17 l-31 -23 18 32 c16 26 26 32 52 32 l34 0 -15 -29z m-670 -52 c3 -5 15 -7
27 -4 14 3 33 -4 52 -21 30 -25 30 -25 5 -22 -14 2 -24 9 -23 15 1 6 -7 13
-19 16 l-20 6 21 -23 c25 -27 26 -36 4 -36 -9 0 -13 -3 -10 -6 4 -4 20 -1 37
6 25 10 36 10 56 0 13 -7 24 -17 24 -22 0 -13 -27 -9 -40 7 -7 8 -18 15 -24
15 -6 0 2 -10 18 -22 l29 -22 -34 -13 -34 -12 37 5 c41 7 100 -20 91 -42 -2
-6 0 -15 6 -19 7 -3 8 0 5 9 -3 9 -1 16 6 16 6 0 9 4 6 9 -3 4 12 16 33 26 33
15 45 15 77 5 l37 -13 -24 -19 c-22 -17 -22 -18 -2 -9 15 8 24 8 28 1 8 -13
-20 -24 -41 -16 -8 3 -23 2 -32 -3 -9 -5 -48 -12 -87 -15 -67 -7 -69 -6 -45 9
18 12 19 14 5 10 -44 -15 -95 -17 -110 -5 -21 17 -10 30 28 31 30 1 30 2 -9
10 -23 5 -52 21 -64 34 l-24 25 35 -5 34 -5 -36 13 c-40 13 -81 45 -74 57 3 4
-2 10 -10 14 -8 3 -15 10 -15 15 0 20 64 19 76 0z m564 -7 c0 -4 -16 -23 -35
-42 -21 -21 -31 -36 -24 -40 17 -11 -71 -80 -101 -80 -33 0 -43 9 -29 27 6 7
8 13 4 13 -22 0 58 50 81 51 27 1 28 1 5 8 l-24 6 28 33 c20 24 35 32 61 32
19 0 34 -4 34 -8z m69 -34 c-30 -45 -60 -68 -86 -68 -33 0 -28 25 7 40 16 7
35 19 42 27 8 9 -1 7 -22 -6 -49 -30 -59 -26 -25 9 22 23 37 30 68 30 l38 0
-22 -32z m-672 -20 c13 -12 23 -25 23 -30 0 -5 15 -21 32 -37 l33 -29 -38 -7
c-47 -9 -141 4 -176 25 -13 7 -10 9 12 10 15 0 27 -6 27 -12 0 -7 5 -5 11 5 7
12 18 16 37 12 22 -4 23 -4 7 4 -18 8 -17 9 10 13 25 4 24 5 -11 7 -32 1 -45
7 -58 25 -14 23 -14 25 2 29 39 10 67 6 89 -15z m567 -57 c3 -4 -6 -13 -20
-20 -35 -16 -40 -14 -19 9 20 22 31 25 39 11z"/>
<path d="M430 805 c0 -5 5 -17 10 -25 5 -8 10 -10 10 -5 0 6 -5 17 -10 25 -5
8 -10 11 -10 5z"/>
<path d="M505 760 c9 -16 18 -30 21 -30 2 0 -2 14 -11 30 -9 17 -18 30 -21 30
-2 0 2 -13 11 -30z"/>
<path d="M727 469 c7 -7 15 -10 18 -7 3 3 -2 9 -12 12 -14 6 -15 5 -6 -5z"/>
<path d="M1208 313 c12 -2 30 -2 40 0 9 3 -1 5 -23 4 -22 0 -30 -2 -17 -4z"/>
<path d="M1440 435 c-14 -8 -20 -14 -14 -15 5 0 19 7 30 15 24 18 16 19 -16 0z"/>
<path d="M1380 354 c-33 -13 -33 -14 -5 -8 17 3 34 10 40 15 11 11 8 11 -35
-7z"/>
<path d="M841 416 c2 -2 15 -9 29 -15 24 -11 24 -11 6 3 -16 13 -49 24 -35 12z"/>
<path d="M910 336 c0 -2 9 -6 20 -9 11 -3 18 -1 14 4 -5 9 -34 13 -34 5z"/>
<path d="M913 900 c0 -36 2 -50 4 -32 2 17 2 47 0 65 -2 17 -4 3 -4 -33z"/>
<path d="M1950 915 c0 -22 -6 -50 -14 -61 -9 -12 -11 -26 -6 -34 13 -22 44 95
31 117 -8 15 -10 10 -11 -22z"/>
<path d="M22 920 c0 -14 2 -19 5 -12 2 6 2 18 0 25 -3 6 -5 1 -5 -13z"/>
<path d="M700 935 c0 -5 5 -17 10 -25 5 -8 10 -10 10 -5 0 6 -5 17 -10 25 -5
8 -10 11 -10 5z"/>
<path d="M1536 925 c-9 -26 -7 -32 5 -12 6 10 9 21 6 23 -2 3 -7 -2 -11 -11z"/>
<path d="M1906 914 c-4 -14 -5 -28 -3 -31 3 -2 8 8 11 23 4 14 5 28 3 31 -3 2
-8 -8 -11 -23z"/>
<path d="M2222 920 c0 -14 2 -19 5 -12 2 6 2 18 0 25 -3 6 -5 1 -5 -13z"/>
<path d="M32 875 c0 -11 3 -29 8 -40 11 -25 11 1 0 35 -6 20 -8 21 -8 5z"/>
<path d="M2193 809 c-79 -282 -281 -527 -554 -673 -46 -25 -79 -46 -74 -46 6
0 45 19 87 43 215 117 395 308 493 520 36 78 79 211 73 226 -1 6 -13 -26 -25
-70z"/>
<path d="M2124 871 c4 -5 3 -16 0 -24 -4 -12 -12 -13 -42 -5 -20 6 -40 15 -43
20 -3 5 -9 1 -11 -10 -4 -14 -2 -19 7 -16 6 3 31 -1 53 -9 30 -10 42 -11 42
-3 0 6 3 21 6 34 4 13 2 22 -5 22 -7 0 -10 -4 -7 -9z"/>
<path d="M174 830 c-5 -21 -12 -30 -23 -28 -9 2 -15 11 -15 21 1 9 -2 17 -7
17 -13 0 -11 -23 4 -44 17 -23 45 -11 49 22 3 30 34 39 32 10 -1 -10 3 -18 8
-18 5 0 8 10 6 23 -2 14 -11 23 -26 25 -18 3 -23 -2 -28 -28z"/>
<path d="M1040 855 c0 -5 5 -17 10 -25 5 -8 10 -10 10 -5 0 6 -5 17 -10 25 -5
8 -10 11 -10 5z"/>
<path d="M1196 845 c-9 -26 -7 -32 5 -12 6 10 9 21 6 23 -2 3 -7 -2 -11 -11z"/>
<path d="M908 818 c-3 -7 1 -26 8 -43 l13 -30 0 30 c1 36 -13 64 -21 43z"/>
<path d="M51 800 c0 -8 6 -28 14 -45 17 -39 18 -21 0 25 -7 19 -14 28 -14 20z"/>
<path d="M1022 785 c0 -16 2 -22 5 -12 2 9 2 23 0 30 -3 6 -5 -1 -5 -18z"/>
<path d="M1060 807 c0 -4 8 -24 18 -45 13 -26 18 -60 18 -117 0 -52 -1 -63 -4
-30 -2 32 -7 43 -11 32 -10 -27 -1 -99 13 -94 7 2 12 35 14 85 2 70 -1 88 -22
129 -14 26 -25 44 -26 40z"/>
<path d="M1222 780 c0 -14 2 -19 5 -12 2 6 2 18 0 25 -3 6 -5 1 -5 -13z"/>
<path d="M2011 781 c-27 -27 -27 -56 1 -75 29 -21 51 -20 71 2 20 22 21 42 5
64 -22 28 -55 31 -77 9z m69 -16 c14 -17 5 -51 -17 -59 -19 -8 -63 19 -63 37
0 34 57 50 80 22z"/>
<path d="M1847 755 c-9 -19 -15 -35 -12 -35 7 0 37 61 33 66 -3 2 -12 -12 -21
-31z"/>
<path d="M154 735 c1 -5 10 -9 19 -7 9 1 21 -6 27 -17 8 -16 7 -22 -6 -29 -9
-5 -14 -14 -10 -20 6 -11 72 52 75 72 1 4 -24 9 -54 10 -33 0 -54 -3 -51 -9z
m86 -9 c0 -2 -7 -9 -15 -16 -12 -10 -15 -10 -15 4 0 9 7 16 15 16 8 0 15 -2
15 -4z"/>
<path d="M421 710 c14 -31 19 -36 19 -24 0 6 -7 19 -16 30 -14 18 -14 18 -3
-6z"/>
<path d="M1332 710 c0 -14 2 -19 5 -12 2 6 2 18 0 25 -3 6 -5 1 -5 -13z"/>
<path d="M80 715 c0 -5 5 -17 10 -25 5 -8 10 -10 10 -5 0 6 -5 17 -10 25 -5 8
-10 11 -10 5z"/>
<path d="M1220 704 c0 -8 5 -12 10 -9 6 4 8 11 5 16 -9 14 -15 11 -15 -7z"/>
<path d="M988 680 c-3 -17 -1 -33 4 -36 4 -3 8 11 8 30 0 44 -6 47 -12 6z"/>
<path d="M280 683 c0 -7 -14 -28 -31 -48 -37 -41 -33 -52 12 -36 44 15 48 6
13 -30 l-29 -32 40 8 c22 4 50 8 61 9 13 0 19 6 17 14 -6 14 -15 15 -28 3 -6
-4 -23 -12 -40 -15 l-30 -7 33 33 c18 19 30 37 26 40 -3 4 -23 0 -45 -7 l-39
-14 16 25 c9 13 23 28 30 32 9 5 10 12 4 22 -6 10 -10 11 -10 3z"/>
<path d="M1955 672 c-3 -9 -3 -13 1 -10 3 4 21 0 38 -10 l31 -17 -47 -3 c-25
-2 -52 -10 -58 -18 -10 -11 -9 -14 4 -14 17 0 66 -27 77 -43 3 -5 9 -2 12 5 3
10 -6 19 -29 27 -49 18 -42 31 16 31 28 0 50 3 50 8 0 4 -20 19 -45 34 -38 23
-44 24 -50 10z"/>
<path d="M100 665 c0 -18 84 -158 132 -221 96 -125 258 -259 393 -327 57 -28
190 -77 208 -77 7 1 -30 16 -81 35 -265 96 -476 277 -611 525 -22 41 -41 70
-41 65z"/>
<path d="M561 564 c0 -11 3 -14 6 -6 3 7 2 16 -1 19 -3 4 -6 -2 -5 -13z"/>
<path d="M1886 564 c-3 -8 1 -14 9 -14 23 0 25 -14 4 -40 -18 -23 -20 -24 -33
-7 -13 16 -14 16 -27 0 -8 -9 -9 -14 -2 -10 6 4 27 -7 47 -26 19 -19 37 -29
39 -23 2 6 -5 18 -16 26 -18 15 -18 16 1 33 20 19 57 13 45 -7 -4 -6 1 -4 11
3 17 14 17 15 -1 22 -10 4 -30 18 -45 32 -20 19 -28 22 -32 11z"/>
<path d="M403 505 c4 -5 -7 -24 -25 -42 -26 -27 -30 -37 -22 -51 18 -27 53
-27 83 2 15 15 31 23 36 19 5 -5 3 0 -4 9 -12 16 -15 15 -38 -12 -27 -32 -42
-37 -61 -18 -15 15 1 44 34 61 24 13 25 14 7 27 -10 8 -15 10 -10 5z"/>
<path d="M1390 490 c-12 -8 -10 -10 8 -10 13 0 20 4 17 10 -7 12 -6 12 -25 0z"/>
<path d="M1784 445 c-15 -23 -15 -27 0 -50 18 -27 63 -34 84 -13 19 19 14 33
-6 15 -23 -21 -46 -22 -62 -3 -17 21 -9 61 13 60 9 -1 17 2 17 7 0 19 -30 8
-46 -16z"/>
<path d="M1355 450 c-13 -6 -15 -9 -5 -9 8 0 22 4 30 9 18 12 2 12 -25 0z"/>
<path d="M648 423 c7 -3 16 -2 19 1 4 3 -2 6 -13 5 -11 0 -14 -3 -6 -6z"/>
<path d="M493 414 c3 -6 -9 -27 -27 -47 -22 -25 -29 -38 -20 -41 7 -3 16 3 19
14 3 10 13 24 22 32 15 12 16 8 11 -35 -3 -26 -2 -49 2 -52 3 -2 22 14 42 35
23 26 30 41 22 44 -7 3 -16 -3 -19 -14 -3 -10 -13 -24 -22 -32 -15 -12 -16 -9
-10 34 5 36 3 49 -10 60 -9 7 -14 8 -10 2z"/>
<path d="M1699 373 c-13 -16 -20 -25 -15 -21 8 7 49 -36 57 -60 3 -10 11 -8
32 8 15 12 25 26 21 31 -3 5 -14 -1 -24 -13 -17 -21 -19 -21 -25 -5 -4 9 -1
25 6 35 13 15 12 16 -4 3 -13 -10 -21 -11 -29 -3 -13 13 -2 32 18 32 8 0 12 5
9 10 -10 16 -20 12 -46 -17z"/>
<path d="M1632 328 c-17 -11 -32 -25 -32 -30 0 -7 5 -6 14 1 11 9 18 6 35 -18
12 -16 21 -34 21 -40 0 -6 7 -8 15 -5 13 6 14 8 1 18 -7 6 -21 23 -30 38 -16
25 -16 27 1 36 10 6 16 13 13 16 -3 3 -20 -4 -38 -16z"/>
<path d="M590 309 c-7 -16 -21 -36 -32 -43 -13 -10 -16 -16 -8 -21 6 -4 12 -5
14 -4 46 72 54 89 47 93 -5 3 -14 -8 -21 -25z"/>
<path d="M642 248 l-3 -60 28 20 c34 24 69 62 58 62 -5 0 -24 -14 -42 -32 -35
-34 -40 -27 -24 29 6 22 6 33 -2 36 -8 3 -13 -15 -15 -55z"/>
<path d="M948 273 c6 -2 18 -2 25 0 6 3 1 5 -13 5 -14 0 -19 -2 -12 -5z"/>
<path d="M1502 260 l-22 -9 20 -33 c11 -18 20 -41 20 -50 0 -12 5 -15 16 -11
9 3 11 9 6 12 -17 11 -19 36 -3 48 14 10 13 11 -5 7 -13 -4 -23 0 -27 9 -6 16
18 31 34 21 5 -3 9 0 9 5 0 13 -17 13 -48 1z"/>
<path d="M760 240 c0 -6 -8 -28 -19 -49 l-18 -39 33 -10 c20 -6 34 -6 34 -1 0
5 -9 9 -20 9 -14 0 -20 7 -20 21 0 17 4 20 23 16 19 -5 20 -5 5 7 -26 19 -6
45 22 28 12 -7 20 -8 20 -2 0 6 -12 15 -26 20 -32 12 -34 12 -34 0z"/>
<path d="M1392 214 c-36 -25 -22 -94 19 -94 55 0 80 58 41 93 -23 21 -32 21
-60 1z m50 -11 c22 -19 23 -46 3 -63 -22 -18 -49 -8 -60 24 -8 23 -6 30 10 42
24 18 25 18 47 -3z"/>
<path d="M843 184 c-1 -19 -7 -41 -13 -49 -8 -9 -7 -14 5 -19 11 -4 15 1 15
19 0 34 13 31 27 -5 6 -16 17 -30 25 -30 8 0 9 3 2 8 -19 13 -25 42 -9 48 21
9 19 41 -4 54 -34 18 -46 12 -48 -26z m52 -4 c0 -22 -29 -18 -33 3 -3 14 1 18
15 15 10 -2 18 -10 18 -18z"/>
<path d="M950 171 c0 -12 9 -26 20 -33 11 -7 20 -18 20 -25 0 -17 -37 -17 -43
0 -3 7 -6 5 -6 -5 -1 -13 7 -18 29 -18 36 0 41 27 10 55 -11 10 -20 22 -20 27
0 12 37 10 43 -2 3 -6 4 -5 3 2 -1 7 -15 14 -29 16 -22 3 -27 -1 -27 -17z"/>
<path d="M1212 183 c-8 -3 -4 -14 14 -36 15 -18 23 -38 21 -49 -3 -11 -1 -18
5 -16 6 2 11 20 13 40 1 21 8 44 15 53 10 12 10 15 -4 15 -9 0 -15 -3 -15 -7
7 -43 -14 -57 -28 -19 -4 12 -14 21 -21 19z"/>
<path d="M1048 139 c3 -28 0 -44 -9 -50 -11 -7 -9 -9 6 -9 17 0 20 7 20 50 0
28 -5 50 -10 50 -6 0 -9 -17 -7 -41z"/>
<path d="M1090 171 c0 -5 10 -7 21 -4 20 6 21 3 18 -41 -3 -27 0 -46 6 -46 6
0 9 19 6 46 -3 44 -2 47 18 41 11 -3 21 -1 21 4 0 5 -20 9 -45 9 -25 0 -45 -4
-45 -9z"/>
<path d="M1470 65 c-36 -13 -60 -24 -54 -24 13 -1 134 39 134 45 0 7 -12 4
-80 -21z"/>
<path d="M870 30 c14 -4 36 -8 50 -8 22 0 22 1 -5 8 -16 4 -39 8 -50 8 -16 0
-15 -2 5 -8z"/>
<path d="M1378 33 c7 -3 16 -2 19 1 4 3 -2 6 -13 5 -11 0 -14 -3 -6 -6z"/>
<path d="M1323 23 c9 -2 23 -2 30 0 6 3 -1 5 -18 5 -16 0 -22 -2 -12 -5z"/>
<path d="M963 13 c9 -2 25 -2 35 0 9 3 1 5 -18 5 -19 0 -27 -2 -17 -5z"/>
<path d="M1253 13 c9 -2 25 -2 35 0 9 3 1 5 -18 5 -19 0 -27 -2 -17 -5z"/>
<path d="M1083 3 c26 -2 67 -2 90 0 23 2 2 3 -48 3 -49 0 -68 -1 -42 -3z"/>
</g>
</svg>
