<?xml version="1.0" standalone="no"?>
<!DOCTYPE svg PUBLIC "-//W3C//DTD SVG 20010904//EN"
 "http://www.w3.org/TR/2001/REC-SVG-20010904/DTD/svg10.dtd">
<svg version="1.0" xmlns="http://www.w3.org/2000/svg"
 width="800.000000pt" height="995.000000pt" viewBox="0 0 800.000000 995.000000"
 preserveAspectRatio="xMidYMid meet">

<g transform="translate(0.000000,995.000000) scale(0.100000,-0.100000)"
fill="#000000" stroke="none">
<path d="M839 6043 l-695 -3568 1398 -3 c1191 -2 1398 -4 1398 -16 0 -17 -27
-274 -35 -333 l-6 -43 -866 -2 -865 -3 1516 -908 1517 -908 1749 878 c1270
637 1750 883 1750 895 0 51 31 48 -582 48 l-569 0 7 32 c269 1362 1309 6705
1307 6711 -2 4 -639 7 -1414 7 l-1411 0 6 28 c3 15 33 178 66 362 33 184 63
347 66 363 l6 27 -1824 0 -1824 0 -695 -3567z m4261 3490 c0 -10 -31 -186 -68
-391 -38 -204 -66 -374 -64 -377 3 -3 640 -5 1415 -5 l1409 0 -5 -22 c-7 -27
-1307 -6686 -1310 -6708 -2 -13 65 -16 529 -20 l531 -5 -1666 -837 -1667 -837
-1398 837 -1398 837 771 3 c604 2 773 5 776 15 4 12 55 466 55 493 0 12 -217
14 -1396 14 l-1396 0 5 23 c3 12 310 1586 682 3497 372 1911 678 3481 680
3488 4 9 364 12 1760 12 1665 0 1755 -1 1755 -17z"/>
<path d="M3985 8129 c-489 -36 -886 -133 -1184 -289 -618 -326 -948 -909
-1195 -2115 -115 -562 -123 -1030 -25 -1420 178 -700 698 -1135 1534 -1280
363 -63 839 -71 1195 -19 518 75 969 286 1314 614 358 341 619 842 756 1452
11 48 20 92 20 98 0 11 -1457 14 -1757 3 l-180 -6 -22 -105 c-136 -647 -493
-1212 -765 -1212 -228 0 -443 361 -522 876 -31 202 -24 714 12 897 l6 27 1648
0 c1562 0 1649 1 1654 18 31 109 42 590 17 757 -73 493 -250 872 -546 1170
-293 295 -673 473 -1135 531 -125 15 -628 18 -825 3z m332 -918 c129 -66 191
-249 213 -631 5 -96 10 -253 10 -347 l0 -173 -162 0 c-90 0 -382 3 -649 7
l-486 6 34 91 c190 510 476 916 725 1026 120 53 238 61 315 21z"/>
</g>
</svg>
